<svg id="Capa_1" data-name="Capa 1" xmlns="http://www.w3.org/2000/svg" viewBox="0 0 180 310"><defs><style>.cls-1{fill:#fff;fill-rule:evenodd;}</style></defs><title>LEFT</title><path class="cls-1" d="M183.48,194.52Q120,258.5,55.89,321.8c-11.67,11.53-27,11.39-37,.83-9.49-10-9.07-26.21,2-37.3q49.92-50,100.4-99.48c3-3,6.78-5.31,10.14-7.9-27.35-28-52.34-53.7-77.44-79.25C42.76,87.31,31,76.43,20.06,64.79,9.5,53.61,9.7,37,19.74,27.54,30,17.83,44.53,18,55.82,29.16q64.13,63.35,127.59,127.28C195,168.11,195,182.85,183.48,194.52Z" transform="translate(-12.14 -20.5)"/></svg>