<svg id="Capa_1" data-name="Capa 1" xmlns="http://www.w3.org/2000/svg" viewBox="0 0 180 310"><defs><style>.cls-1{fill:#fff;fill-rule:evenodd;}</style></defs><title>RIGHT</title><path class="cls-1" d="M20.81,194.52q63.51,64,127.59,127.28c11.67,11.53,27,11.39,37,.83,9.49-10,9.07-26.21-2-37.3q-49.9-50-100.39-99.48c-3-3-6.78-5.31-10.14-7.9,27.35-28,52.34-53.7,77.44-79.25,11.22-11.39,22.95-22.27,33.92-33.91,10.56-11.18,10.35-27.76.32-37.25-10.29-9.71-24.79-9.57-36.08,1.62Q84.35,92.51,20.88,156.44C9.25,168.11,9.25,182.85,20.81,194.52Z" transform="translate(-12.14 -20.5)"/></svg>